<svg xmlns="http://www.w3.org/2000/svg" width="180" height="70" viewBox="0 0 180 70"><rect width="180" height="70" fill="#fff" opacity="0"/><path d="M5.551-2.037H2.81L2.276,0H.15l3.11-9.953H5.1L8.23,0H6.084Zm-2.3-1.675H5.106L4.177-7.26ZM18.318-9.953v6.891a3.219,3.219,0,0,1-.854,2.375A3.306,3.306,0,0,1,15.05.137,3.334,3.334,0,0,1,12.606-.7a3.244,3.244,0,0,1-.844-2.413V-9.953h2.023V-3.1a2.051,2.051,0,0,0,.273,1.21,1.172,1.172,0,0,0,.991.362,1.157,1.157,0,0,0,.984-.359,2.044,2.044,0,0,0,.273-1.179V-9.953ZM29.088-8.278H26.627V0H24.611V-8.278h-2.42V-9.953h6.9Zm10.771,4.2a4.643,4.643,0,0,1-.947,3.11A3.273,3.273,0,0,1,36.284.137a3.31,3.31,0,0,1-2.632-1.1,4.575,4.575,0,0,1-.971-3.073v-1.7a4.893,4.893,0,0,1,.95-3.2A3.233,3.233,0,0,1,36.27-10.09a3.248,3.248,0,0,1,2.618,1.131,4.826,4.826,0,0,1,.971,3.175ZM37.842-5.749a4.087,4.087,0,0,0-.383-2,1.281,1.281,0,0,0-1.189-.656,1.286,1.286,0,0,0-1.183.632,3.884,3.884,0,0,0-.4,1.924v1.771a3.7,3.7,0,0,0,.39,1.924,1.322,1.322,0,0,0,1.2.619,1.288,1.288,0,0,0,1.169-.6,3.63,3.63,0,0,0,.39-1.876Zm7.845,7.595h-1.2v-11.8h1.2Zm8.966-4.457a1.247,1.247,0,0,0-.311-.919,3.581,3.581,0,0,0-1.131-.646,5.272,5.272,0,0,1-2.153-1.33,2.672,2.672,0,0,1-.656-1.8,2.525,2.525,0,0,1,.892-2.02,3.366,3.366,0,0,1,2.266-.762,3.393,3.393,0,0,1,1.634.386,2.679,2.679,0,0,1,1.1,1.09,3.271,3.271,0,0,1,.386,1.6h-2a1.651,1.651,0,0,0-.3-1.063,1.042,1.042,0,0,0-.858-.366,1.074,1.074,0,0,0-.82.311,1.169,1.169,0,0,0-.294.837,1.031,1.031,0,0,0,.328.742,3.773,3.773,0,0,0,1.162.687,4.979,4.979,0,0,1,2.116,1.292,2.878,2.878,0,0,1,.66,1.948,2.569,2.569,0,0,1-.827,2.03A3.274,3.274,0,0,1,53.6.137a3.873,3.873,0,0,1-1.757-.4A2.974,2.974,0,0,1,50.6-1.395a3.3,3.3,0,0,1-.448-1.743h2.017a1.9,1.9,0,0,0,.335,1.251A1.371,1.371,0,0,0,53.6-1.5Q54.653-1.5,54.653-2.611ZM67.789,0h-2V-4.259H62.82V0H60.81V-9.953h2.01v4.026h2.967V-9.953h2Zm11.42-4.081a4.643,4.643,0,0,1-.947,3.11A3.273,3.273,0,0,1,75.634.137,3.31,3.31,0,0,1,73-.96a4.575,4.575,0,0,1-.971-3.073v-1.7a4.893,4.893,0,0,1,.95-3.2,3.233,3.233,0,0,1,2.639-1.152,3.248,3.248,0,0,1,2.618,1.131,4.826,4.826,0,0,1,.971,3.175ZM77.193-5.749a4.087,4.087,0,0,0-.383-2,1.281,1.281,0,0,0-1.189-.656,1.286,1.286,0,0,0-1.183.632,3.884,3.884,0,0,0-.4,1.924v1.771a3.7,3.7,0,0,0,.39,1.924,1.322,1.322,0,0,0,1.2.619,1.288,1.288,0,0,0,1.169-.6,3.63,3.63,0,0,0,.39-1.876ZM85.462-3.5V0h-2.01V-9.953h3.391a3.111,3.111,0,0,1,2.355.916,3.294,3.294,0,0,1,.878,2.379,3.081,3.081,0,0,1-.868,2.311A3.3,3.3,0,0,1,86.8-3.5Zm0-1.675h1.381a1.094,1.094,0,0,0,.889-.376,1.665,1.665,0,0,0,.314-1.094,1.973,1.973,0,0,0-.321-1.186,1.03,1.03,0,0,0-.861-.448h-1.4Z" transform="translate(65 40)" fill="#181818"/><g transform="translate(-426.398 -387.529)"><path d="M556.853,425.3c.233-2.09,4.254-4.432,6.888-4.285.7,4.172-5.423,4.7-6.888,4.285M544.5,431.232h12.918v.368a1.183,1.183,0,0,0,1.179,1.178h5.425A1.182,1.182,0,0,0,565.2,431.6v-.657a.842.842,0,0,0,.54-.784v-8.514a3.189,3.189,0,0,0-3.125-3.18c1.2-2.209,4.64-1.575,4.293-2.38-.293-.678-3.8-1.8-4.293-.153a8.358,8.358,0,0,1-.332,1.245,2.156,2.156,0,0,1-.5.634c-1.161-3.986-2.634-6.532-7.037-6.532-3.546,0-7.471.2-9.4,4.5a27.016,27.016,0,0,1,15,.222C556.574,417.425,535.432,431.232,544.5,431.232Z" transform="translate(-80.935)" fill="#3f51b5" fill-rule="evenodd"/><path d="M460.478,425.3c-.233-2.09-4.254-4.432-6.888-4.285-.7,4.172,5.423,4.7,6.888,4.285m-4.928-7.489a2.154,2.154,0,0,1-.5-.634,8.4,8.4,0,0,1-.332-1.245c-.5-1.651-4-.526-4.293.153-.348.806,3.09.172,4.293,2.38a3.189,3.189,0,0,0-3.125,3.18v8.514a.842.842,0,0,0,.54.784v.657a1.183,1.183,0,0,0,1.178,1.178h5.426a1.182,1.182,0,0,0,1.179-1.178v-.368h.915c-2.154-1.236,2.746-9.664,9.11-13.524a21.952,21.952,0,0,0-11.679,3.885c.852-4.435,5.027-9.375,9.022-10.314h-4.695C458.184,411.279,456.711,413.825,455.55,417.811Z" transform="translate(0)" fill="#36417d" fill-rule="evenodd"/></g></svg>